<svg xmlns="http://www.w3.org/2000/svg" width="240" height="240" viewBox="0 0 240 240">
<defs>
<linearGradient id="gGold" x1="0" y1="0" x2="0" y2="1"><stop offset="0" stop-color="#FFEB80"/><stop offset=".5" stop-color="#FFD700"/><stop offset="1" stop-color="#947D00"/></linearGradient>
<linearGradient id="gAcc" x1="0" y1="0" x2="0" y2="1"><stop offset="0" stop-color="#AF4959"/><stop offset="1" stop-color="#550F1A"/></linearGradient>
<radialGradient id="gFace" cx=".5" cy=".4" r=".6"><stop offset="0" stop-color="#232327"/><stop offset="1" stop-color="#070708"/></radialGradient>
</defs>
<circle cx="120" cy="120" r="116" fill="#0B0B0C"/>
<circle cx="120" cy="120" r="114" fill="none" stroke="url(#gGold)" stroke-width="3"/>
<circle cx="120" cy="120" r="102" fill="none" stroke="url(#gGold)" stroke-width="18" stroke-dasharray="64 42.8" transform="rotate(-18 120 120)"/>
<circle cx="120" cy="120" r="102" fill="none" stroke="#9B1B30" stroke-width="18" stroke-dasharray="10 96.8" stroke-dashoffset="-27" transform="rotate(-18 120 120)"/>
<circle cx="120" cy="120" r="90" fill="none" stroke="url(#gGold)" stroke-width="1.5"/>
<circle cx="120" cy="120" r="72" fill="url(#gFace)" stroke="url(#gGold)" stroke-width="2"/>
<g transform="translate(120 122) scale(0.66) translate(-100 -102)">
<path d="M100 16 L172 40 V96 C172 146 140 172 100 188 C60 172 28 146 28 96 V40 Z" fill="url(#gAcc)" stroke="url(#gGold)" stroke-width="10" stroke-linejoin="round"/>
<path d="M100 30 L160 50 V97 C160 138 134 160 100 173 C66 160 40 138 40 97 V50 Z" fill="none" stroke="#FFEB80" stroke-opacity=".45" stroke-width="2" stroke-linejoin="round"/>
<polygon points="100,37 104,48.5 116.2,48.7 106.5,56.1 110,67.8 100,60.8 90,67.8 93.5,56.1 83.8,48.7 96,48.5" fill="url(#gGold)"/>
<rect x="52" y="84" width="26" height="50" rx="4" fill="#F4EEDC" stroke="url(#gGold)" stroke-width="6"/><rect x="57" y="104" width="16" height="10" rx="1.5" fill="#111113"/><rect x="87" y="84" width="26" height="50" rx="4" fill="#F4EEDC" stroke="url(#gGold)" stroke-width="6"/><rect x="92" y="104" width="16" height="10" rx="1.5" fill="#111113"/><rect x="122" y="84" width="26" height="50" rx="4" fill="#F4EEDC" stroke="url(#gGold)" stroke-width="6"/><rect x="127" y="104" width="16" height="10" rx="1.5" fill="#111113"/></g>
</svg>
